<?xml version="1.0" encoding="utf-8"?>
<!-- Generator: Adobe Illustrator 18.1.1, SVG Export Plug-In . SVG Version: 6.00 Build 0)  -->
<svg version="1.1" id="Layer_1" xmlns="http://www.w3.org/2000/svg" xmlns:xlink="http://www.w3.org/1999/xlink" x="0px" y="0px"
	 viewBox="0 0 114 114" enable-background="new 0 0 114 114" xml:space="preserve">
<g>
	<circle fill="#F44336" cx="57" cy="57" r="55"/>
	<g>
		<path fill="#212121" d="M89,75.7c0,1.6-1.3,2.9-2.9,2.9H27.9c-1.6,0-2.9-1.3-2.9-2.9V35c0-1.6,1.3-2.9,2.9-2.9h58.2
			c1.6,0,2.9,1.3,2.9,2.9V75.7z"/>
		<rect x="48.3" y="78.6" fill="#E2E4E5" width="17.5" height="7.5"/>
		<path fill="#F0F0F0" d="M71.5,87.5c0,0.8-0.7,1.5-1.5,1.5H43.9c-0.8,0-1.5-0.7-1.5-1.5c0-0.8,0.7-1.5,1.5-1.5h26.2
			C70.9,86.1,71.5,86.7,71.5,87.5z"/>
		<path fill="#FFFFFF" d="M89,75.7V67H25v8.7c0,1.6,1.3,2.9,2.9,2.9h58.2C87.7,78.6,89,77.3,89,75.7z"/>
		<path fill="#CFD3D4" d="M57,76.9c-2.2,0-3.9-1.8-3.9-3.9c0-2.2,1.8-3.9,3.9-3.9s3.9,1.8,3.9,3.9C60.9,75.2,59.2,76.9,57,76.9z
			 M57,71.1c-1.1,0-1.9,0.9-1.9,1.9s0.9,1.9,1.9,1.9s1.9-0.9,1.9-1.9S58.1,71.1,57,71.1z"/>
		<path fill="#5B5C5F" d="M25,34.9v32h19.7L79.6,32H27.9C26.3,32,25,33.3,25,34.9z"/>
		<g>
			<path fill="#FFFFFF" d="M32.4,39.5c0-1.1,0.4-1.7,1.1-1.7c0.7,0,1.1,0.6,1.1,1.7c0,1.1-0.4,1.7-1.1,1.7
				C32.8,41.2,32.4,40.6,32.4,39.5z M34.2,39.5c0-1-0.2-1.4-0.6-1.4c-0.4,0-0.6,0.4-0.6,1.4c0,1,0.2,1.4,0.6,1.4
				C33.9,40.9,34.2,40.5,34.2,39.5z M33.5,39.2c0.2,0,0.3,0.1,0.3,0.3c0,0.2-0.1,0.3-0.3,0.3c-0.2,0-0.3-0.1-0.3-0.3
				C33.2,39.3,33.3,39.2,33.5,39.2z"/>
			<path fill="#FFFFFF" d="M36.4,38.3l-0.8,0.5l-0.2-0.3l1.1-0.7h0.4v3h0.7v0.4h-1.9v-0.4h0.8V38.3z"/>
			<path fill="#FFFFFF" d="M43.1,38.3l0.2,0.3l-1.7,1l1.7,1L43,41l-1.8-1.2v-0.4L43.1,38.3z"/>
			<path fill="#FFFFFF" d="M45.7,41.2v-1.6h-1.2v1.6h-0.5v-3.3h0.5v1.4h1.2v-1.4h0.5v3.3H45.7z"/>
			<path fill="#FFFFFF" d="M48.3,38.2v3h-0.5v-3h-1v-0.4h2.5l0,0.4H48.3z"/>
			<path fill="#FFFFFF" d="M51.8,41.2l-0.1-1.7c0-0.5,0-1,0-1.1h0l-0.5,2.2h-0.4l-0.6-2.2h0c0,0.1,0,0.7,0,1.1l-0.1,1.7h-0.4
				l0.2-3.3h0.6l0.5,2.2h0l0.5-2.2h0.6l0.2,3.3H51.8z"/>
			<path fill="#FFFFFF" d="M53,41.2v-3.3h0.5v2.9H55L55,41.2H53z"/>
			<path fill="#FFFFFF" d="M57.8,39.4v0.4L55.9,41l-0.2-0.3l1.7-1l-1.7-1l0.2-0.3L57.8,39.4z"/>
			<path fill="#FFFFFF" d="M32.4,45.3c0-1.1,0.4-1.7,1.1-1.7c0.7,0,1.1,0.6,1.1,1.7c0,1.1-0.4,1.7-1.1,1.7
				C32.8,47,32.4,46.4,32.4,45.3z M34.2,45.3c0-1-0.2-1.4-0.6-1.4c-0.4,0-0.6,0.4-0.6,1.4c0,1,0.2,1.4,0.6,1.4
				C33.9,46.7,34.2,46.3,34.2,45.3z M33.5,45c0.2,0,0.3,0.1,0.3,0.3c0,0.2-0.1,0.3-0.3,0.3c-0.2,0-0.3-0.1-0.3-0.3
				C33.2,45.1,33.3,45,33.5,45z"/>
			<path fill="#FFFFFF" d="M35.9,46.6h1.5L37.4,47h-2v-0.4c1.2-1.1,1.5-1.6,1.5-2.1c0-0.4-0.2-0.6-0.6-0.6c-0.3,0-0.5,0.1-0.7,0.4
				l-0.3-0.2c0.3-0.3,0.6-0.5,1-0.5c0.6,0,1,0.4,1,0.9C37.3,45.1,36.9,45.7,35.9,46.6z"/>
			<path fill="#FFFFFF" d="M43.1,44.1l0.2,0.3l-1.7,1l1.7,1L43,46.8l-1.8-1.2v-0.4L43.1,44.1z"/>
			<path fill="#FFFFFF" d="M45,47h-0.9v-3.3H45c0.6,0,1.2,0.2,1.2,0.8c0,0.4-0.3,0.6-0.6,0.7v0c0.3,0.1,0.7,0.3,0.7,0.8
				C46.3,46.7,45.7,47,45,47z M45.1,44h-0.5v1h0.5c0.4,0,0.6-0.2,0.6-0.5C45.7,44.1,45.5,44,45.1,44z M45.1,45.4h-0.5v1.2h0.5
				c0.3,0,0.7-0.1,0.7-0.6C45.8,45.5,45.5,45.4,45.1,45.4z"/>
			<path fill="#FFFFFF" d="M48,47c-0.8,0-1.2-0.7-1.2-1.7c0-1,0.4-1.7,1.2-1.7c0.8,0,1.2,0.7,1.2,1.7C49.3,46.3,48.9,47,48,47z
				 M48,44c-0.5,0-0.8,0.5-0.8,1.4c0,0.9,0.2,1.3,0.8,1.3c0.5,0,0.8-0.5,0.8-1.3C48.8,44.4,48.6,44,48,44z"/>
			<path fill="#FFFFFF" d="M50.7,47h-0.8v-3.3h0.7c0.8,0,1.6,0.3,1.6,1.7C52.2,46.7,51.4,47,50.7,47z M50.7,44h-0.4v2.6h0.4
				c0.5,0,1-0.2,1-1.3C51.7,44.1,51.2,44,50.7,44z"/>
			<path fill="#FFFFFF" d="M54.1,45.7V47h-0.5v-1.3l-1.1-2.1H53l0.9,1.6h0l0.9-1.6h0.5L54.1,45.7z"/>
			<path fill="#FFFFFF" d="M57.8,45.2v0.4l-1.8,1.2l-0.2-0.3l1.7-1l-1.7-1l0.2-0.3L57.8,45.2z"/>
			<path fill="#FFFFFF" d="M32.4,51.1c0-1.1,0.4-1.7,1.1-1.7c0.7,0,1.1,0.6,1.1,1.7c0,1.1-0.4,1.7-1.1,1.7
				C32.8,52.8,32.4,52.2,32.4,51.1z M34.2,51.1c0-1-0.2-1.4-0.6-1.4c-0.4,0-0.6,0.4-0.6,1.4c0,1,0.2,1.4,0.6,1.4
				C33.9,52.5,34.2,52.1,34.2,51.1z M33.5,50.8c0.2,0,0.3,0.1,0.3,0.3c0,0.2-0.1,0.3-0.3,0.3c-0.2,0-0.3-0.1-0.3-0.3
				C33.2,50.9,33.3,50.8,33.5,50.8z"/>
			<path fill="#FFFFFF" d="M36.3,52.8c-0.4,0-0.8-0.1-1-0.5l0.3-0.2c0.2,0.2,0.5,0.3,0.7,0.3c0.5,0,0.7-0.3,0.7-0.7
				c0-0.5-0.3-0.6-0.7-0.6h-0.3l0.1-0.3h0.2c0.3,0,0.6-0.2,0.6-0.6c0-0.4-0.3-0.5-0.6-0.5c-0.3,0-0.5,0.1-0.7,0.3l-0.2-0.3
				c0.3-0.3,0.6-0.4,1-0.4c0.6,0,1,0.4,1,0.8c0,0.4-0.3,0.7-0.6,0.8v0c0.4,0,0.7,0.3,0.7,0.8C37.5,52.4,37,52.8,36.3,52.8z"/>
			<path fill="#FFFFFF" d="M43.1,49.9l0.2,0.3l-1.7,1l1.7,1L43,52.6l-1.8-1.2V51L43.1,49.9z"/>
			<path fill="#FFFFFF" d="M45.7,52.8v-1.6h-1.2v1.6h-0.5v-3.3h0.5v1.4h1.2v-1.4h0.5v3.3H45.7z"/>
			<path fill="#FFFFFF" d="M47.6,49.8v1.1h1.2v0.4h-1.2v1.1h1.5v0.4h-2v-3.3h1.9L49,49.8H47.6z"/>
			<path fill="#FFFFFF" d="M51.6,51.9h-1.3L50,52.8h-0.5l1.1-3.3h0.6l1.1,3.3h-0.5L51.6,51.9z M50.4,51.6h1.1l-0.5-1.7h0L50.4,51.6z
				"/>
			<path fill="#FFFFFF" d="M53.6,52.8h-0.8v-3.3h0.7c0.8,0,1.6,0.3,1.6,1.7C55.1,52.5,54.3,52.8,53.6,52.8z M53.6,49.8h-0.4v2.6h0.4
				c0.5,0,1-0.2,1-1.3C54.6,50,54.1,49.8,53.6,49.8z"/>
			<path fill="#FFFFFF" d="M56.3,49.8v1.1h1.2v0.4h-1.2v1.1h1.5v0.4h-2v-3.3h1.9l-0.1,0.4H56.3z"/>
			<path fill="#FFFFFF" d="M60,51.3l1,1.5h-0.5l-0.9-1.4h-0.4v1.4h-0.5v-3.3h0.9c0.8,0,1.3,0.3,1.3,0.9C60.8,50.9,60.5,51.2,60,51.3
				z M59.6,49.8h-0.5V51h0.5c0.5,0,0.7-0.2,0.7-0.6C60.3,50,60.1,49.8,59.6,49.8z"/>
			<path fill="#FFFFFF" d="M63.6,51v0.4l-1.8,1.2l-0.2-0.3l1.7-1l-1.7-1l0.2-0.3L63.6,51z"/>
			<path fill="#FFFFFF" d="M32.4,56.9c0-1.1,0.4-1.7,1.1-1.7c0.7,0,1.1,0.6,1.1,1.7c0,1.1-0.4,1.7-1.1,1.7
				C32.8,58.6,32.4,58,32.4,56.9z M34.2,56.9c0-1-0.2-1.4-0.6-1.4c-0.4,0-0.6,0.4-0.6,1.4c0,1,0.2,1.4,0.6,1.4
				C33.9,58.3,34.2,57.9,34.2,56.9z M33.5,56.6c0.2,0,0.3,0.1,0.3,0.3c0,0.2-0.1,0.3-0.3,0.3c-0.2,0-0.3-0.1-0.3-0.3
				C33.2,56.7,33.3,56.6,33.5,56.6z"/>
			<path fill="#FFFFFF" d="M37.1,57.8v0.8h-0.4v-0.8h-1.4v-0.3l1-2.3l0.4,0.2l-0.9,2.1h0.9l0-0.9h0.4v0.9h0.4v0.4H37.1z"/>
			<path fill="#FFFFFF" d="M43.1,55.7l0.2,0.3l-1.7,1l1.7,1L43,58.4l-1.8-1.2v-0.4L43.1,55.7z"/>
			<path fill="#FFFFFF" d="M44.3,59.1l-0.4-0.2l2.1-4.3l0.4,0.2L44.3,59.1z"/>
			<path fill="#FFFFFF" d="M48.6,58.6V57h-1.2v1.6H47v-3.3h0.5v1.4h1.2v-1.4h0.5v3.3H48.6z"/>
			<path fill="#FFFFFF" d="M50.5,55.6v1.1h1.2v0.4h-1.2v1.1H52v0.4h-2v-3.3H52l-0.1,0.4H50.5z"/>
			<path fill="#FFFFFF" d="M54.5,57.7h-1.3l-0.3,0.8h-0.5l1.1-3.3h0.6l1.1,3.3h-0.5L54.5,57.7z M53.3,57.4h1.1l-0.5-1.7h0L53.3,57.4
				z"/>
			<path fill="#FFFFFF" d="M56.5,58.6h-0.8v-3.3h0.7c0.8,0,1.6,0.3,1.6,1.7C58,58.3,57.2,58.6,56.5,58.6z M56.5,55.6h-0.4v2.6h0.4
				c0.5,0,1-0.2,1-1.3C57.5,55.8,57,55.6,56.5,55.6z"/>
			<path fill="#FFFFFF" d="M59.2,55.6v1.1h1.2v0.4h-1.2v1.1h1.5v0.4h-2v-3.3h1.9l-0.1,0.4H59.2z"/>
			<path fill="#FFFFFF" d="M62.9,57.1l1,1.5h-0.5l-0.9-1.4H62v1.4h-0.5v-3.3h0.9c0.8,0,1.3,0.3,1.3,0.9C63.7,56.7,63.4,57,62.9,57.1
				z M62.5,55.6H62v1.2h0.5c0.5,0,0.7-0.2,0.7-0.6C63.2,55.8,63,55.6,62.5,55.6z"/>
			<path fill="#FFFFFF" d="M66.5,56.9v0.4l-1.8,1.2l-0.2-0.3l1.7-1l-1.7-1l0.2-0.3L66.5,56.9z"/>
		</g>
	</g>
</g>
</svg>
